# xmcd
#
# Track frame offsets:
#	150
#	13390
#	26835
#	39152
#	52015
#	65192
#	82997
#	99115
#	113117
#	127137
#	140777
#	153810
#
# Disc length: 2219 seconds
#
# Revision: 1
# Processed by: cddbd v1.5.2PL0 Copyright (c) Steve Scherf et al.
# Submitted via: audiograbber 1.83.01
#
DISCID=a308a90c
DTITLE=Crazy Heart - Crazy Heart
DYEAR=1995
DGENRE=Country
TTITLE0=Heartbreak school
TTITLE1=That woman's got a right to
TTITLE2=Lady tonight
TTITLE3=A girl like you
TTITLE4=Hard headed heart
TTITLE5=Fire on the mountain
TTITLE6=Blue Kentucky wind
TTITLE7=Isn't he the lucky one
TTITLE8=My heart's to broke to pay attention
TTITLE9=A wing and a prayer
TTITLE10=I've forgotten how to forget
TTITLE11=The love that we lost
EXTD=
EXTT0=
EXTT1=
EXTT2=
EXTT3=
EXTT4=
EXTT5=
EXTT6=
EXTT7=
EXTT8=
EXTT9=
EXTT10=
EXTT11=
PLAYORDER=
